ply
format ascii 1.0
element vertex 392
property float x
property float y
property float z
property uchar red
property uchar green
property uchar blue
element edge 391
property int vertex1
property int vertex2
end_header
-1.09753036499023438 0 0.139180034399032593 255 0 0
1.00950908660888672 0 -0.0599512681365013123 255 0 0
-0.800119876861572266 0 -0.097286909818649292 255 0 0
-0.54555898904800415 0 -0.351383775472640991 255 0 0
0.0359221547842025757 0 0.889464497566223145 255 0 0
-0.131915241479873657 0 0.170408293604850769 255 0 0
0.774470686912536621 0 -0.658543944358825684 255 0 0
-0.0910080075263977051 0 -0.677932381629943848 255 0 0
-0.156789004802703857 0 0.412183821201324463 255 0 0
0.783362984657287598 0 -0.857410430908203125 255 0 0
0.314717292785644531 0 0.275049209594726562 255 0 0
-0.198870211839675903 0 0.522077262401580811 255 0 0
0.486668676137924194 0 0.218251466751098633 255 0 0
-1.25053882598876953 0 0.27250826358795166 255 0 0
-0.399478614330291748 0 0.00353320129215717316 255 0 0
-0.823813438415527344 0 0.240157350897789001 255 0 0
0.921071469783782959 0 -0.403978943824768066 255 0 0
-0.104034587740898132 0 -0.856261849403381348 255 0 0
-0.523652017116546631 0 -0.473569124937057495 255 0 0
-0.774180471897125244 0 0.00886574946343898773 255 0 0
0.885171771049499512 0 0.18904837965965271 255 0 0
0.172261431813240051 0 0.512229561805725098 255 0 0
-0.158352449536323547 0 0.0993491411209106445 255 0 0
0.0713153257966041565 0 -1.0629504919052124 255 0 0
0.721293151378631592 0 0.067712247371673584 255 0 0
-0.245140254497528076 0 0.556714653968811035 255 0 0
-0.851932644844055176 0 -0.181284278631210327 255 0 0
0.146154791116714478 0 0.933733224868774414 255 0 0
-0.95907437801361084 0 -0.595738053321838379 255 0 0
-0.757684826850891113 0 -0.485319077968597412 255 0 0
-0.250036180019378662 0 -0.742073655128479004 255 0 0
0.135774105787277222 0 0.618770480155944824 255 0 0
0.000364702544175088406 0 0.499237120151519775 255 0 0
0.0222093779593706131 0 -0.394168317317962646 255 0 0
0.551103353500366211 0 0.689886212348937988 255 0 0
-0.51263117790222168 0 -0.10386212170124054 255 0 0
-0.171206340193748474 0 -0.74960482120513916 255 0 0
-0.491213560104370117 0 -0.162013381719589233 255 0 0
-0.715226531028747559 0 -1.3039470911026001 255 0 0
-0.188620224595069885 0 0.0928140580654144287 255 0 0
-0.273006647825241089 0 0.458102166652679443 255 0 0
0.853318333625793457 0 -0.818124711513519287 255 0 0
-0.242353081703186035 0 -0.0309179089963436127 255 0 0
0.13884657621383667 0 0.366082906723022461 255 0 0
0.442035138607025146 0 -0.276296943426132202 255 0 0
0.0172812975943088531 0 0.619375705718994141 255 0 0
0.174646094441413879 0 -0.915122330188751221 255 0 0
-1.04435145854949951 0 -0.664450526237487793 255 0 0
0.413287043571472168 0 0.556395411491394043 255 0 0
0.112407244741916656 0 -0.431523799896240234 255 0 0
-0.45237964391708374 0 0.892498791217803955 255 0 0
0.088871486485004425 0 -0.479101449251174927 255 0 0
-0.156303122639656067 0 0.0937222763895988464 255 0 0
0.549655914306640625 0 0.16339343786239624 255 0 0
0.779709041118621826 0 0.386278688907623291 255 0 0
0.516791641712188721 0 -0.33155408501625061 255 0 0
-0.575285017490386963 0 -0.347634404897689819 255 0 0
-0.21161806583404541 0 0.791000425815582275 255 0 0
-0.592042446136474609 0 0.230814099311828613 255 0 0
-0.240217447280883789 0 -0.518490314483642578 255 0 0
0.795560896396636963 0 0.655506908893585205 255 0 0
-0.868080854415893555 0 -0.358482480049133301 255 0 0
1.18908452987670898 0 -0.373149335384368896 255 0 0
0.176089495420455933 0 -0.565222322940826416 255 0 0
0.441045463085174561 0 0.162720337510108948 255 0 0
0.0455491840839385986 0 0.167077034711837769 255 0 0
-1.43438339233398438 0 -0.21345105767250061 255 0 0
1.00260496139526367 0 -0.795144557952880859 255 0 0
-0.459457039833068848 0 0.312888652086257935 255 0 0
-0.222273200750350952 0 0.514192461967468262 255 0 0
-0.307247519493103027 0 0.36594119668006897 255 0 0
0.802225470542907715 0 0.324670612812042236 255 0 0
0.0203673895448446274 0 -0.715822339057922363 255 0 0
0.596672534942626953 0 -0.220846474170684814 255 0 0
-0.616957783699035645 0 0.255536496639251709 255 0 0
0.799780845642089844 0 0.302513837814331055 255 0 0
0.227607578039169312 0 0.580828666687011719 255 0 0
-0.666875123977661133 0 0.0562866330146789551 255 0 0
0.211008310317993164 0 -0.356922149658203125 255 0 0
0.244683712720870972 0 0.308795809745788574 255 0 0
-0.529250144958496094 0 0.665291368961334229 255 0 0
0.549428105354309082 0 0.293185174465179443 255 0 0
0.937671899795532227 0 0.221555247902870178 255 0 0
0.261774957180023193 0 1.05923104286193848 255 0 0
0.137001842260360718 0 0.808090686798095703 255 0 0
-0.325219601392745972 0 -0.0228946805000305176 255 0 0
-0.200717538595199585 0 0.149637475609779358 255 0 0
0.536519765853881836 0 -0.0220463220030069351 255 0 0
0.584265589714050293 0 0.759357869625091553 255 0 0
0.909239351749420166 0 0.842465996742248535 255 0 0
-0.438615143299102783 0 -1.26764500141143799 255 0 0
-0.0014390735886991024 0 0.339101999998092651 255 0 0
-0.27073591947555542 0 -0.440450012683868408 255 0 0
0.128503486514091492 0 0.763385474681854248 255 0 0
0.285092025995254517 0 -0.340680360794067383 255 0 0
0.678995609283447266 0 -0.282356798648834229 255 0 0
-0.447085857391357422 0 0.403443872928619385 255 0 0
0.197646394371986389 0 0.153871834278106689 255 0 0
0.0205148719251155853 0 -0.298019737005233765 255 0 0
-0.612837553024291992 0 0.0586414411664009094 255 0 0
1.17092609405517578 0 0.00332040479406714439 255 0 0
0.0955661982297897339 0 -0.791448116302490234 255 0 0
0.0736297518014907837 0 0.292735695838928223 255 0 0
0.767534136772155762 0 -0.714522719383239746 255 0 0
0.491465091705322266 0 -0.272182554006576538 255 0 0
0.429131358861923218 0 -0.299063026905059814 255 0 0
0.165693283081054688 0 -0.288406789302825928 255 0 0
-0.619429469108581543 0 -0.329134106636047363 255 0 0
0.0791910737752914429 0 -0.22931179404258728 255 0 0
0.364485114812850952 0 -0.378871053457260132 255 0 0
-0.986244320869445801 0 0.0228237118571996689 255 0 0
0.62083888053894043 0 0.7794952392578125 255 0 0
-0.0202019326388835907 0 -0.0975863933563232422 255 0 0
-0.323605239391326904 0 -0.139983460307121277 255 0 0
-0.571579933166503906 0 -0.679740190505981445 255 0 0
-0.283001929521560669 0 0.232656925916671753 255 0 0
-0.392813742160797119 0 0.422327160835266113 255 0 0
0.750847339630126953 0 0.306897461414337158 255 0 0
0.243615269660949707 0 0.378777503967285156 255 0 0
-0.00853130035102367401 0 0.866443455219268799 255 0 0
0.208420366048812866 0 -0.225990891456604004 255 0 0
0.256254285573959351 0 -0.326144605875015259 255 0 0
-0.371258795261383057 0 0.128958866000175476 255 0 0
0.912429690361022949 0 -1.13138222694396973 255 0 0
0.554609477519989014 0 -0.0271778367459774017 255 0 0
-0.425337821245193481 0 0.848347485065460205 255 0 0
0.618432521820068359 0 0.92183685302734375 255 0 0
-1.31722116470336914 0 -0.260530829429626465 255 0 0
-0.30382990837097168 0 0.499454230070114136 255 0 0
0.990715861320495605 0 0.0117340162396430969 255 0 0
-0.0676119178533554077 0 -0.677276134490966797 255 0 0
-0.0660311281681060791 0 0.860242187976837158 255 0 0
-0.290264278650283813 0 0.21118628978729248 255 0 0
-0.27737659215927124 0 0.158557206392288208 255 0 0
0.195508360862731934 0 -0.194640070199966431 255 0 0
-0.199288547039031982 0 0.14194662868976593 255 0 0
-1.09356296062469482 0 -0.486378371715545654 255 0 0
0.47360914945602417 0 0.390260756015777588 255 0 0
-0.672263383865356445 0 0.825323939323425293 255 0 0
0.248533725738525391 0 0.46101003885269165 255 0 0
-0.403309017419815063 0 0.656792104244232178 255 0 0
1.11637568473815918 0 0.0589408501982688904 255 0 0
0.329473733901977539 0 -0.11886182427406311 255 0 0
-0.131643682718276978 0 -0.375508546829223633 255 0 0
0.502810776233673096 0 -0.775681376457214355 255 0 0
-0.271063238382339478 0 -1.14944827556610107 255 0 0
0.0508325248956680298 0 0.439549863338470459 255 0 0
0.0771877020597457886 0 0.447424232959747314 255 0 0
0.339100420475006104 0 -0.142425850033760071 255 0 0
0.249855458736419678 0 -0.224189907312393188 255 0 0
0.281361222267150879 0 -0.484801650047302246 255 0 0
-0.12676885724067688 0 -0.172747239470481873 255 0 0
-0.643700242042541504 0 -0.344093739986419678 255 0 0
-0.680239856243133545 0 0.10782969743013382 255 0 0
-0.0103706438094377518 0 -0.114538818597793579 255 0 0
-0.127572879195213318 0 0.627117395401000977 255 0 0
-0.941665410995483398 0 0.842554628849029541 255 0 0
0.561425626277923584 0 0.415980696678161621 255 0 0
0.0304887332022190094 0 1.21937251091003418 255 0 0
0.660793542861938477 0 1.16768014430999756 255 0 0
0.0106220385059714317 0 0.657463192939758301 255 0 0
-0.60428321361541748 0 0.514569878578186035 255 0 0
0.289841771125793457 0 -0.348308682441711426 255 0 0
0.685135424137115479 0 -0.42478024959564209 255 0 0
0.00480480212718248367 0 -0.29325634241104126 255 0 0
-1.5 0 0.136139482259750366 255 0 0
-0.702370524406433105 0 0.733953356742858887 255 0 0
0.563946068286895752 0 -0.113868877291679382 255 0 0
0.24855920672416687 0 0.193235591053962708 255 0 0
-0.5279541015625 0 0.00441589951515197754 255 0 0
1.00983059406280518 0 0.586179375648498535 255 0 0
-0.549604356288909912 0 -0.273772507905960083 255 0 0
0.01301535964012146 0 -0.158070981502532959 255 0 0
0.151090428233146667 0 -1.18564987182617188 255 0 0
0.188437968492507935 0 -0.217904955148696899 255 0 0
0.432062923908233643 0 -0.592894971370697021 255 0 0
0.0767050758004188538 0 -0.0116680562496185303 255 0 0
0.725075185298919678 0 -0.349664509296417236 255 0 0
-0.101661823689937592 0 0.515195667743682861 255 0 0
-0.472591996192932129 0 -1.08436489105224609 255 0 0
-0.973220229148864746 0 -0.186129972338676453 255 0 0
0.529797017574310303 0 -0.832107186317443848 255 0 0
-0.0309834890067577362 0 -0.113135635852813721 255 0 0
-0.559041142463684082 0 -0.0165633931756019592 255 0 0
0.150507614016532898 0 -0.645738959312438965 255 0 0
-0.319008111953735352 0 -0.608927130699157715 255 0 0
-0.996314287185668945 0 0.0942574590444564819 255 0 0
0.481837689876556396 0 -0.158445253968238831 255 0 0
0.456067711114883423 0 0.412587881088256836 255 0 0
0.701895058155059814 0 0.647032022476196289 255 0 0
-0.337168306112289429 0 0.376531124114990234 255 0 0
-0.731874823570251465 0 -0.181309521198272705 255 0 0
0.671543538570404053 0 -0.450565427541732788 255 0 0
-0.295646965503692627 0 0.733068704605102539 255 0 0
0.465061008930206299 0 -0.275467753410339355 255 0 0
-0.33713531494140625 0 0.00415317108854651451 255 0 0
0.175402134656906128 0 -0.763731837272644043 255 0 0
-0.0983821079134941101 0 -0.00581490807235240936 255 0 0
-0.664878368377685547 0 -0.700000584125518799 255 0 0
0.696398258209228516 0 -0.093359142541885376 255 0 0
-0.762239336967468262 0 -0.429001986980438232 255 0 0
-0.141300976276397705 0 -0.55343937873840332 255 0 0
0.566531896591186523 0 1.00276672840118408 255 0 0
0.643813014030456543 0 0.141862094402313232 255 0 0
0.501726984977722168 0 -0.0488354116678237915 255 0 0
-0.509457826614379883 0 0.226772591471672058 255 0 0
0.782314717769622803 0 0.313559293746948242 255 0 0
-0.483221501111984253 0 0.457290112972259521 255 0 0
-0.773904025554656982 0 0.592921197414398193 255 0 0
0.0384938530623912811 0 -0.0621916800737380981 255 0 0
0.677522122859954834 0 0.968371331691741943 255 0 0
0.306105911731719971 0 0.673911690711975098 255 0 0
-0.8001442551612854 0 -0.382730931043624878 255 0 0
-0.174568057060241699 0 0.0887451767921447754 255 0 0
0.940023243427276611 0 -0.468071103096008301 255 0 0
-0.0187095329165458679 0 0.626625418663024902 255 0 0
-0.799328923225402832 0 0.642385005950927734 255 0 0
0.309347242116928101 0 0.00986459292471408844 255 0 0
-0.833320736885070801 0 -0.534341156482696533 255 0 0
0.495806694030761719 0 -0.322532713413238525 255 0 0
-0.239047184586524963 0 -0.406680881977081299 255 0 0
0.549705147743225098 0 -0.983919024467468262 255 0 0
0.569653809070587158 0 0.661034107208251953 255 0 0
-0.0775304585695266724 0 -0.522615611553192139 255 0 0
0.242485851049423218 0 -1.01318621635437012 255 0 0
-0.0144686261191964149 0 -0.208345726132392883 255 0 0
0.278293490409851074 0 0.236332610249519348 255 0 0
0.138821780681610107 0 0.337164193391799927 255 0 0
0.363812357187271118 0 0.145164430141448975 255 0 0
-0.238561868667602539 0 0.0919117629528045654 255 0 0
0.0307981632649898529 0 -0.405752420425415039 255 0 0
0.338786870241165161 0 0.0968713611364364624 255 0 0
-0.430867135524749756 0 -0.810196459293365479 255 0 0
-0.853011369705200195 0 -0.371420979499816895 255 0 0
-0.32099539041519165 0 -0.117205321788787842 255 0 0
-0.0960437208414077759 0 -1.31489694118499756 255 0 0
0.502912759780883789 0 -0.572190821170806885 255 0 0
-0.0243247691541910172 0 0.186618059873580933 255 0 0
0.342816174030303955 0 -0.169062644243240356 255 0 0
-0.205110281705856323 0 0.0106409220024943352 255 0 0
0.239354223012924194 0 0.380194276571273804 255 0 0
-0.09047679603099823 0 0.673539876937866211 255 0 0
0.294457852840423584 0 0.350503504276275635 255 0 0
0.857242405414581299 0 0.519111394882202148 255 0 0
-1.11837601661682129 0 0.225661605596542358 255 0 0
-0.00964899081736803055 0 -0.233972087502479553 255 0 0
-0.243248522281646729 0 0.0196563862264156342 255 0 0
-0.450565755367279053 0 -0.0821130499243736267 255 0 0
-0.0693420469760894775 0 -0.291177332401275635 255 0 0
0.397898823022842407 0 1.19626462459564209 255 0 0
0.133166134357452393 0 0.243813470005989075 255 0 0
-0.026888921856880188 0 0.336314797401428223 255 0 0
-0.55336374044418335 0 -0.498145312070846558 255 0 0
-0.271050035953521729 0 -0.41202092170715332 255 0 0
-0.336397260427474976 0 -0.643631815910339355 255 0 0
0.851949572563171387 0 0.610751092433929443 255 0 0
1.07140433788299561 0 0.144632548093795776 255 0 0
0.556861937046051025 0 -0.122994557023048401 255 0 0
-0.318059951066970825 0 -0.756803393363952637 255 0 0
0.127903521060943604 0 -0.0682188272476196289 255 0 0
1.34863960742950439 0 -0.705142855644226074 255 0 0
0.575729012489318848 0 -0.196022748947143555 255 0 0
-0.195399761199951172 0 -0.465693235397338867 255 0 0
-0.464667141437530518 0 -0.74089813232421875 255 0 0
-0.779971539974212646 0 0.152449235320091248 255 0 0
-0.78728252649307251 0 -0.184519469738006592 255 0 0
-0.142639577388763428 0 0.303935408592224121 255 0 0
-0.274850666522979736 0 0.171164602041244507 255 0 0
0.342984557151794434 0 -0.40499413013458252 255 0 0
-0.016287241131067276 0 0.800197124481201172 255 0 0
-0.0624327845871448517 0 0.141917869448661804 255 0 0
0.523879885673522949 0 -1.29877042770385742 255 0 0
-0.0533305071294307709 0 0.018473450094461441 255 0 0
-0.263113677501678467 0 0.173464447259902954 255 0 0
0.145424485206604004 0 0.975678205490112305 255 0 0
-0.820486903190612793 0 -0.249511241912841797 255 0 0
0.394817888736724854 0 -0.116328448057174683 255 0 0
-0.417462348937988281 0 0.427299410104751587 255 0 0
-1.01604545116424561 0 -0.261798322200775146 255 0 0
-0.00360790500417351723 0 -0.671702921390533447 255 0 0
-0.155662283301353455 0 0.683354616165161133 255 0 0
-0.510921955108642578 0 0.485369056463241577 255 0 0
0.159707546234130859 0 -0.581745147705078125 255 0 0
-0.836819052696228027 0 0.304121136665344238 255 0 0
0.0049335164949297905 0 0.222536236047744751 255 0 0
0.547930419445037842 0 -0.0315474793314933777 255 0 0
0.0845626518130302429 0 1.22676706314086914 255 0 0
-0.721931755542755127 0 -1.02263557910919189 255 0 0
-0.655595541000366211 0 -0.690121829509735107 255 0 0
-0.163306355476379395 0 0.415527880191802979 255 0 0
0.0169346965849399567 0 0.081536218523979187 255 0 0
-0.0303861908614635468 0 0.974984049797058105 255 0 0
-0.417729645967483521 0 0.974566817283630371 255 0 0
0.388297587633132935 0 0.255061447620391846 255 0 0
-0.73674476146697998 0 0.123298846185207367 255 0 0
-0.82795482873916626 0 0.240598708391189575 255 0 0
0.591911077499389648 0 0.699381589889526367 255 0 0
-0.452767014503479004 0 0.950023770332336426 255 0 0
-0.192966744303703308 0 0.708810806274414062 255 0 0
-0.538723587989807129 0 -0.387305796146392822 255 0 0
0.667389333248138428 0 0.545236468315124512 255 0 0
-0.400009274482727051 0 -0.199965178966522217 255 0 0
0.353832334280014038 0 -0.869701385498046875 255 0 0
-0.330733299255371094 0 -0.0434462055563926697 255 0 0
-0.10229194164276123 0 0.0729059204459190369 255 0 0
-0.078670307993888855 0 -0.245640769600868225 255 0 0
0.595519661903381348 0 -0.141664385795593262 255 0 0
0.827886819839477539 0 -0.684438884258270264 255 0 0
-0.352982521057128906 0 0.279304862022399902 255 0 0
-0.219747096300125122 0 -0.0914996117353439331 255 0 0
-1.06196129322052002 0 0.43800276517868042 255 0 0
0.382082521915435791 0 -0.0202426910400390625 255 0 0
0.0385488495230674744 0 1.14773821830749512 255 0 0
-0.606154441833496094 0 -0.0697337985038757324 255 0 0
-0.632974624633789062 0 0.454200178384780884 255 0 0
0.103001140058040619 0 0.840239524841308594 255 0 0
-0.378145962953567505 0 -0.178316026926040649 255 0 0
0.293018698692321777 0 -0.412592828273773193 255 0 0
0.0507557094097137451 0 -0.194982051849365234 255 0 0
-0.0583808720111846924 0 0.794837057590484619 255 0 0
0.02735186368227005 0 -0.131261080503463745 255 0 0
0.499285101890563965 0 0.227775037288665771 255 0 0
-0.554374396800994873 0 0.0654128342866897583 255 0 0
0.518525183200836182 0 -0.0825350731611251831 255 0 0
0.190602540969848633 0 0.207292318344116211 255 0 0
0.103222563862800598 0 1.1751561164855957 255 0 0
0.500715196132659912 0 -0.165466457605361938 255 0 0
-0.628396511077880859 0 -1.22559571266174316 255 0 0
0.0579931288957595825 0 -0.503560006618499756 255 0 0
0.0470815971493721008 0 -0.320625811815261841 255 0 0
0.852186203002929688 0 -0.380994319915771484 255 0 0
0.673768281936645508 0 0.733364701271057129 255 0 0
-0.305372685194015503 0 -0.724795877933502197 255 0 0
0.701492965221405029 0 -0.571953654289245605 255 0 0
0.518082976341247559 0 0.0433450080454349518 255 0 0
0.152606263756752014 0 0.0260967351496219635 255 0 0
1.12996006011962891 0 0.350614935159683228 255 0 0
-0.0516118630766868591 0 1.03491652011871338 255 0 0
-0.738030791282653809 0 0.353967100381851196 255 0 0
0.180316269397735596 0 0.00100189098156988621 255 0 0
-1.11869621276855469 0 0.389973104000091553 255 0 0
-0.205191627144813538 0 0.224441587924957275 255 0 0
0.0571169145405292511 0 -0.273106157779693604 255 0 0
-0.432788491249084473 0 0.576174378395080566 255 0 0
-0.0971471667289733887 0 1.10809516906738281 255 0 0
-0.324913650751113892 0 0.254378080368041992 255 0 0
0.310155272483825684 0 -0.742198944091796875 255 0 0
0.420584946870803833 0 -0.59747922420501709 255 0 0
1.123238205909729 0 0.449810385704040527 255 0 0
0.358164727687835693 0 0.246318921446800232 255 0 0
0.339714795351028442 0 -0.192868739366531372 255 0 0
-0.245632380247116089 0 0.118447273969650269 255 0 0
0.59885096549987793 0 -0.76735222339630127 255 0 0
0.0881074145436286926 0 -0.502182662487030029 255 0 0
0.85770416259765625 0 0.789569735527038574 255 0 0
-0.440682590007781982 0 -0.734407186508178711 255 0 0
-0.00188815745059400797 0 0.452879428863525391 255 0 0
0.309833437204360962 0 -0.750334560871124268 255 0 0
-0.176255702972412109 0 0.0113072795793414116 255 0 0
-0.198927640914916992 0 0.354887604713439941 255 0 0
-0.95995795726776123 0 0.548426032066345215 255 0 0
-0.93986213207244873 0 0.573618829250335693 255 0 0
0.296889901161193848 0 0.227416053414344788 255 0 0
-0.316030502319335938 0 -0.222125232219696045 255 0 0
-0.182854160666465759 0 -0.610610544681549072 255 0 0
0.407701939344406128 0 0.264129072427749634 255 0 0
-0.127271890640258789 0 0.00494617316871881485 255 0 0
0.423227787017822266 0 -0.365309804677963257 255 0 0
1.16312706470489502 0 -0.324525505304336548 255 0 0
-0.306236088275909424 0 -1.00237035751342773 255 0 0
-0.462910294532775879 0 0.275130867958068848 255 0 0
-0.0244413651525974274 0 -0.462116271257400513 255 0 0
0.38325047492980957 0 -0.0898459702730178833 255 0 0
-0.377023398876190186 0 -0.855239987373352051 255 0 0
-0.178011968731880188 0 0.577354609966278076 255 0 0
0.514082908630371094 0 -1.00161862373352051 255 0 0
-0.0821848735213279724 0 -0.647699475288391113 255 0 0
0.035128861665725708 0 0.415077030658721924 255 0 0
-0.591581344604492188 0 0.364686340093612671 255 0 0
-0.658122122287750244 0 -0.263070046901702881 255 0 0
-0.683925509452819824 0 -0.476648926734924316 255 0 0
0.849910974502563477 0 -0.83922886848449707 255 0 0
-0.0932590961456298828 0 -0.411637991666793823 255 0 0
0.118707135319709778 0 -0.00246684323064982891 255 0 0
0.33498343825340271 0 -0.109709843993186951 255 0 0
1.13513827323913574 0 -0.831290960311889648 255 0 0
-0.531215786933898926 0 0.372523903846740723 255 0 0
1.11173355579376221 0 0.138658612966537476 255 0 0
-0.817592382431030273 0 -0.564817249774932861 255 0 0
-0.140396848320960999 0 0.569610953330993652 255 0 0
0.323160022497177124 0 -0.228900521993637085 255 0 0
0.0153149683028459549 0 0.113344676792621613 255 0 0
0 1
1 2
2 3
3 4
4 5
5 6
6 7
7 8
8 9
9 10
10 11
11 12
12 13
13 14
14 15
15 16
16 17
17 18
18 19
19 20
20 21
21 22
22 23
23 24
24 25
25 26
26 27
27 28
28 29
29 30
30 31
31 32
32 33
33 34
34 35
35 36
36 37
37 38
38 39
39 40
40 41
41 42
42 43
43 44
44 45
45 46
46 47
47 48
48 49
49 50
50 51
51 52
52 53
53 54
54 55
55 56
56 57
57 58
58 59
59 60
60 61
61 62
62 63
63 64
64 65
65 66
66 67
67 68
68 69
69 70
70 71
71 72
72 73
73 74
74 75
75 76
76 77
77 78
78 79
79 80
80 81
81 82
82 83
83 84
84 85
85 86
86 87
87 88
88 89
89 90
90 91
91 92
92 93
93 94
94 95
95 96
96 97
97 98
98 99
99 100
100 101
101 102
102 103
103 104
104 105
105 106
106 107
107 108
108 109
109 110
110 111
111 112
112 113
113 114
114 115
115 116
116 117
117 118
118 119
119 120
120 121
121 122
122 123
123 124
124 125
125 126
126 127
127 128
128 129
129 130
130 131
131 132
132 133
133 134
134 135
135 136
136 137
137 138
138 139
139 140
140 141
141 142
142 143
143 144
144 145
145 146
146 147
147 148
148 149
149 150
150 151
151 152
152 153
153 154
154 155
155 156
156 157
157 158
158 159
159 160
160 161
161 162
162 163
163 164
164 165
165 166
166 167
167 168
168 169
169 170
170 171
171 172
172 173
173 174
174 175
175 176
176 177
177 178
178 179
179 180
180 181
181 182
182 183
183 184
184 185
185 186
186 187
187 188
188 189
189 190
190 191
191 192
192 193
193 194
194 195
195 196
196 197
197 198
198 199
199 200
200 201
201 202
202 203
203 204
204 205
205 206
206 207
207 208
208 209
209 210
210 211
211 212
212 213
213 214
214 215
215 216
216 217
217 218
218 219
219 220
220 221
221 222
222 223
223 224
224 225
225 226
226 227
227 228
228 229
229 230
230 231
231 232
232 233
233 234
234 235
235 236
236 237
237 238
238 239
239 240
240 241
241 242
242 243
243 244
244 245
245 246
246 247
247 248
248 249
249 250
250 251
251 252
252 253
253 254
254 255
255 256
256 257
257 258
258 259
259 260
260 261
261 262
262 263
263 264
264 265
265 266
266 267
267 268
268 269
269 270
270 271
271 272
272 273
273 274
274 275
275 276
276 277
277 278
278 279
279 280
280 281
281 282
282 283
283 284
284 285
285 286
286 287
287 288
288 289
289 290
290 291
291 292
292 293
293 294
294 295
295 296
296 297
297 298
298 299
299 300
300 301
301 302
302 303
303 304
304 305
305 306
306 307
307 308
308 309
309 310
310 311
311 312
312 313
313 314
314 315
315 316
316 317
317 318
318 319
319 320
320 321
321 322
322 323
323 324
324 325
325 326
326 327
327 328
328 329
329 330
330 331
331 332
332 333
333 334
334 335
335 336
336 337
337 338
338 339
339 340
340 341
341 342
342 343
343 344
344 345
345 346
346 347
347 348
348 349
349 350
350 351
351 352
352 353
353 354
354 355
355 356
356 357
357 358
358 359
359 360
360 361
361 362
362 363
363 364
364 365
365 366
366 367
367 368
368 369
369 370
370 371
371 372
372 373
373 374
374 375
375 376
376 377
377 378
378 379
379 380
380 381
381 382
382 383
383 384
384 385
385 386
386 387
387 388
388 389
389 390
390 391
